<?xml version="1.0" encoding="UTF-8" standalone="no"?>
<svg
   xmlns:dc="http://purl.org/dc/elements/1.1/"
   xmlns:cc="http://creativecommons.org/ns#"
   xmlns:rdf="http://www.w3.org/1999/02/22-rdf-syntax-ns#"
   xmlns:svg="http://www.w3.org/2000/svg"
   xmlns="http://www.w3.org/2000/svg"
   viewBox="0 0 573.1333 390.67334"
   height="150"
   width="150"
   xml:space="preserve"
   id="svg2"
   version="1.1"><metadata
     id="metadata8"><rdf:RDF><cc:Work
         rdf:about=""><dc:format>image/svg+xml</dc:format><dc:type
           rdf:resource="http://purl.org/dc/dcmitype/StillImage" /></cc:Work></rdf:RDF></metadata><defs
     id="defs6" /><g
     transform="matrix(1.3333333,0,0,-1.3333333,0,933.34667)"
     id="g10"><g
       transform="scale(0.1)"
       id="g12"><path
         id="path14"
         style="fill:#383a3b;fill-opacity:1;fill-rule:nonzero;stroke:none"
         d="m 4203.1,6523.96 -0.08,-1284.49 c -0.03,-105.04 -42.67,-200.24 -111.58,-269.15 -68.87,-68.86 -163.99,-111.48 -268.94,-111.48 l -1859.3,0.13 -15.75,0.01 -12.46,-9.1 -1247.291,-909.97 423.031,850.35 34.2,68.77 h -76.84 l -367.469,0.02 c -105.035,0.03 -200.258,42.68 -269.152,111.57 -68.875,68.89 -111.485,164 -111.469,268.95 l 0.086,1284.5 h 0.187 v 0.03 h -0.187 c 0.023,105.01 42.672,200.2 111.574,269.1 68.867,68.85 163.973,111.46 268.899,111.47 v -0.19 h 0.019 l 0.008,0.19 3121.894,-0.21 v -0.19 h 0.03 v 0.19 c 105.02,-0.02 200.23,-42.66 269.12,-111.57 68.85,-68.86 111.47,-163.98 111.47,-268.9 h -0.19 v -0.03 z m 95.21,-0.13 c 0,131.4 -53.26,250.42 -139.34,336.51 -86.04,86.06 -204.99,139.3 -336.29,139.33 v 0.2 h -0.03 v -0.2 l -3121.908,0.21 v 0.19 h -0.019 v -0.19 c -131.41,0 -250.426,-53.25 -336.52,-139.34 -86.058,-86.04 -139.301,-204.98 -139.328,-336.29 h -0.191 v -0.02 h 0.191 l -0.09,-1284.5 c -0.004,-131.42 53.258,-250.46 139.344,-336.56 86.043,-86.05 205.008,-139.3 336.32,-139.32 l 290.633,-0.02 -475.773,-956.39 -86.961,-174.79 157.797,115.12 1392.625,1016 1843.56,-0.13 c 131.46,-0.01 250.48,53.27 336.57,139.34 86.05,86.06 139.29,204.99 139.33,336.32 l 0.08,1284.5 h 0.19 v 0.03 h -0.19" /><path
         id="path16"
         style="fill:#383a3b;fill-opacity:1;fill-rule:evenodd;stroke:none"
         d="m 3695.66,5506.16 h -412.89 v 278.66 h 372.28 l 0.07,221.1 -372.35,-0.05 v 239.06 l 394.87,-0.89 v 229.05 H 3012.63 V 5282.85 h 683.03 v 223.31 z m -777.13,-375 -0.01,1497.29 h 837.95 l 0.01,-1498.03 -837.95,0.74 v 0" /><path
         id="path18"
         style="fill:#f35e19;fill-opacity:1;fill-rule:evenodd;stroke:none"
         d="m 2703.17,6473.09 -313.4,-0.01 c -17.53,-65.19 -213.61,-812.11 -219.78,-812.09 -42.09,256.33 -107.06,560.31 -168.89,813.47 l -314.61,-1.15 -102.97,-1189.6 243.68,-0.87 c 3.91,76.84 40.68,868.2 46.28,868.19 47.8,-291.66 120.96,-562.74 191.32,-847.44 l 205.13,-0.73 c 26.26,94.39 225.1,845.95 229.74,845.93 -3.55,-266.5 15.12,-602.89 24.67,-865.95 h 256.02 l -77.19,1190.25 z M 1473.73,5129.9 l -0.79,1498.04 1379.58,0.51 0.04,-1498.04 -1378.83,-0.51 v 0" /><path
         id="path20"
         style="fill:#383a3b;fill-opacity:1;fill-rule:nonzero;stroke:none"
         d="m 834.305,6023.35 c -44.801,-92.63 -18.903,-242.76 106.531,-243.5 97.614,-0.59 111.364,123.22 140.334,141.66 17.73,11.28 44.82,4.62 44.64,-39.98 -0.11,-27.57 -11.14,-66.08 -25.05,-89.2 l 85.79,-20.29 c 41.44,69.02 46.14,267.05 -99.77,266.65 -119.885,-0.33 -111.561,-147.03 -159.042,-146.56 -44.949,0.44 -27.828,77.9 -9.691,110.92 l -83.742,20.3 v 0" /><path
         id="path22"
         style="fill:#383a3b;fill-opacity:1;fill-rule:nonzero;stroke:none"
         d="m 674.867,5675.32 c 64.516,-38.68 135.031,-71.13 208.406,-94.29 l -7.648,106.83 c -69.523,10.63 -141.047,31.05 -208.34,54.83 l 7.582,-67.37 v 0" /><path
         id="path24"
         style="fill:#383a3b;fill-opacity:1;fill-rule:nonzero;stroke:none"
         d="m 822.355,5352.93 0.063,-46.97 86.445,0.12 -0.07,46.97 c 42.797,0.06 173.567,-3.74 215.977,5.2 80.79,17.03 94.85,83.69 84.72,158.14 -1.72,12.7 -3.77,22.79 -6.28,30.39 l -92.55,-0.82 c 7.1,-25.34 7.52,-58.96 -21.92,-69.45 -23.65,-8.42 -146.642,-4.98 -180.123,-5.04 l -0.109,79.64 -86.449,-0.13 0.125,-79.63 -103.461,-0.15 33.523,-118.38 70.109,0.11 v 0" /><path
         id="path26"
         style="fill:#383a3b;fill-opacity:1;fill-rule:nonzero;stroke:none"
         d="m 822.496,5253.55 0.172,-119.79 383.192,0.57 -0.18,119.78 -383.184,-0.56 v 0" /><path
         id="path28"
         style="fill:#383a3b;fill-opacity:1;fill-rule:nonzero;stroke:none"
         d="m 718.359,5254.76 c -82.89,-0.9 -80.543,-122.64 0.176,-122.5 79.961,0.13 81.324,121.86 -0.176,122.5 v 0" /><path
         id="path30"
         style="fill:#383a3b;fill-opacity:1;fill-rule:nonzero;stroke:none"
         d="m 3978.42,2891.31 -0.09,-1284.49 c -0.02,-105.04 -42.66,-200.24 -111.57,-269.15 -68.87,-68.86 -164,-111.48 -268.94,-111.48 l -1859.3,0.13 -15.75,0.02 -12.46,-9.11 -1247.294,-909.968 423.031,850.348 34.203,68.77 h -76.848 l -367.464,0.02 c -105.036,0.03 -200.258,42.68 -269.153,111.58 -68.875,68.88 -111.4842,163.99 -111.4686,268.94 l 0.082,1284.5 h 0.1914 v 0.03 h -0.1914 c 0.0274,105.01 42.6756,200.21 111.5786,269.09 68.867,68.86 163.968,111.47 268.898,111.48 v -0.19 h 0.02 l 0.003,0.19 3121.902,-0.2 v -0.2 h 0.03 v 0.2 c 105.02,-0.03 200.23,-42.67 269.11,-111.58 68.86,-68.86 111.47,-163.97 111.48,-268.9 h -0.19 v -0.03 z m 95.21,-0.13 c 0,131.4 -53.27,250.42 -139.35,336.51 -86.03,86.06 -204.98,139.3 -336.29,139.33 v 0.2 h -0.03 v -0.2 l -3121.901,0.21 v 0.19 h -0.02 v -0.19 c -131.41,0 -250.426,-53.25 -336.519,-139.34 C 53.4609,3141.85 0.21875,3022.91 0.191406,2891.6 H 0 v -0.02 H 0.191406 L 0.101563,1607.08 C 0.0976563,1475.66 53.3594,1356.62 139.445,1270.52 225.488,1184.47 344.453,1131.22 475.766,1131.2 L 766.398,1131.18 290.625,174.801 203.664,0 361.461,115.121 1754.09,1131.12 l 1843.56,-0.13 c 131.46,-0.01 250.48,53.27 336.57,139.34 86.05,86.06 139.29,204.99 139.32,336.32 l 0.09,1284.5 h 0.19 v 0.03 h -0.19" /><path
         id="path32"
         style="fill:#383a3b;fill-opacity:1;fill-rule:evenodd;stroke:none"
         d="m 2693.85,1498.51 -0.02,1497.29 h 837.96 l 0.01,-1498.03 -837.95,0.74 v 0" /><path
         id="path34"
         style="fill:#ffffff;fill-opacity:1;fill-rule:evenodd;stroke:none"
         d="m 3470.98,1873.51 h -412.9 v 278.66 h 372.29 l 0.06,221.1 -372.35,-0.05 0.01,239.06 394.87,-0.89 v 229.05 h -665.01 l -0.01,-1190.24 h 683.04 v 223.31 0" /><path
         id="path36"
         style="fill:#f35e19;fill-opacity:1;fill-rule:evenodd;stroke:none"
         d="m 1249.04,1497.25 -0.79,1498.04 1379.58,0.51 0.05,-1498.04 -1378.84,-0.51 v 0" /><path
         id="path38"
         style="fill:#ffffff;fill-opacity:1;fill-rule:evenodd;stroke:none"
         d="m 2478.49,2840.44 -313.41,-0.01 c -17.52,-65.18 -213.61,-812.11 -219.77,-812.09 -42.1,256.33 -107.06,560.31 -168.89,813.47 l -314.62,-1.15 -102.97,-1189.6 243.69,-0.87 c 3.91,76.84 40.68,868.2 46.28,868.19 47.79,-291.66 120.95,-562.74 191.32,-847.44 l 205.12,-0.73 c 26.26,94.39 225.11,845.95 229.74,845.93 -3.55,-266.5 15.13,-602.89 24.67,-865.95 h 256.03 l -77.19,1190.25 v 0" /><path
         id="path40"
         style="fill:#383a3b;fill-opacity:1;fill-rule:nonzero;stroke:none"
         d="m 609.617,2390.7 c -44.797,-92.62 -18.898,-242.76 106.535,-243.5 97.618,-0.59 111.368,123.22 140.336,141.66 17.727,11.28 44.817,4.62 44.641,-39.98 -0.117,-27.57 -11.141,-66.08 -25.055,-89.2 l 85.793,-20.29 c 41.443,69.02 46.133,267.05 -99.769,266.65 -119.887,-0.33 -111.563,-147.03 -159.043,-146.56 -44.95,0.44 -27.828,77.9 -9.692,110.93 l -83.746,20.29 v 0" /><path
         id="path42"
         style="fill:#383a3b;fill-opacity:1;fill-rule:nonzero;stroke:none"
         d="m 450.184,2042.67 c 64.515,-38.68 135.031,-71.13 208.406,-94.29 l -7.652,106.83 c -69.52,10.63 -141.043,31.05 -208.336,54.83 l 7.582,-67.37 v 0" /><path
         id="path44"
         style="fill:#383a3b;fill-opacity:1;fill-rule:nonzero;stroke:none"
         d="m 597.672,1720.28 0.062,-46.97 86.45,0.12 -0.075,46.97 c 42.797,0.06 173.571,-3.74 215.973,5.2 80.801,17.03 94.859,83.69 84.727,158.14 -1.723,12.7 -3.774,22.79 -6.282,30.39 l -92.554,-0.82 c 7.109,-25.34 7.523,-58.96 -21.914,-69.45 -23.649,-8.42 -146.649,-4.98 -180.125,-5.04 l -0.11,79.64 -86.449,-0.13 0.125,-79.63 -103.461,-0.15 33.524,-118.38 70.109,0.11 v 0" /><path
         id="path46"
         style="fill:#383a3b;fill-opacity:1;fill-rule:nonzero;stroke:none"
         d="m 597.813,1620.9 0.171,-119.79 383.192,0.57 -0.18,119.78 -383.183,-0.56 v 0" /><path
         id="path48"
         style="fill:#383a3b;fill-opacity:1;fill-rule:nonzero;stroke:none"
         d="m 493.676,1622.11 c -82.891,-0.9 -80.543,-122.64 0.176,-122.5 79.961,0.13 81.324,121.86 -0.176,122.5 v 0" /></g></g></svg>