<?xml version="1.0" encoding="utf-8"?>
<!-- Generator: Adobe Illustrator 25.2.3, SVG Export Plug-In . SVG Version: 6.00 Build 0)  -->
<svg version="1.1" id="Ebene_1" xmlns="http://www.w3.org/2000/svg" xmlns:xlink="http://www.w3.org/1999/xlink" x="0px"
     y="0px"
     viewBox="0 0 270 97.585" enable-background="new 0 0 270 97.585" xml:space="preserve">
<g>
	<path fill="#464646" d="M115.705,13.514H115.7c-0.001-3.729-1.513-7.107-3.957-9.551c-2.445-2.445-5.825-3.958-9.558-3.958V0
		h-0.001v0.005L13.515,0.011V0.006h-0.001v0.005C9.785,0.012,6.407,1.524,3.963,3.969c-2.445,2.445-3.958,5.825-3.958,9.558H0v0.001
		h0.005L0.008,50.01c0.001,3.73,1.513,7.108,3.957,9.552c2.445,2.445,5.825,3.958,9.559,3.958l52.361-0.004l39.553,28.857
		l4.482,3.27l-2.47-4.965L93.938,63.514l8.255-0.001c3.73-0.001,7.108-1.513,9.552-3.957c2.445-2.445,3.958-5.826,3.958-9.559
		L115.7,13.515L115.705,13.514L115.705,13.514z M109.832,57.64c-1.957,1.957-4.661,3.168-7.644,3.169l-10.437,0h-2.182l0.971,1.953
		l12.015,24.152L67.129,61.07l-0.354-0.259l-0.447,0l-52.808,0.004c-2.98,0-5.682-1.21-7.638-3.166
		c-1.957-1.957-3.168-4.661-3.169-7.644L2.71,13.522h0.005v-0.001H2.71c0-2.98,1.211-5.681,3.166-7.637
		c1.957-1.957,4.661-3.168,7.643-3.169v0.005h0.001V2.715l88.669-0.006l0,0.005h0V2.71c2.98,0,5.681,1.21,7.637,3.166
		c1.957,1.957,3.168,4.66,3.169,7.643h-0.005v0.001h0.005l0.003,36.483C112.998,52.983,111.788,55.684,109.832,57.64z"/>
    <path fill-rule="evenodd" clip-rule="evenodd" fill="#464646" d="M100.31,10.555h-23.8l0,42.526l23.8,0.021L100.31,10.555z
		 M98.583,48.773h-19.4l0-33.805h18.888v6.505l-11.215-0.025v6.79l10.576-0.002l-0.002,6.28H86.856l0,7.915h11.727V48.773z"/>
    <path fill-rule="evenodd" clip-rule="evenodd" fill="#EB6807" d="M74.636,10.555l-39.183,0.015l0.022,42.548l39.161-0.015
		L74.636,10.555z M65.315,48.773c-0.271-7.471-0.802-17.025-0.701-24.595c-0.131,0-5.779,21.346-6.525,24.026l-5.826-0.021
		c-1.998-8.086-4.077-15.785-5.434-24.069c-0.159-0.001-1.203,22.476-1.314,24.658l-6.921-0.025l2.925-33.787l8.936-0.033
		c1.756,7.19,3.602,15.824,4.797,23.104c0.175,0.001,5.745-21.213,6.242-23.065l8.901,0l2.193,33.805H65.315z"/>
    <path fill="#464646" d="M17.315,27.741l2.379,0.576c-0.515,0.938-1.001,3.138,0.275,3.151c1.349,0.013,1.112-4.153,4.517-4.163
		c4.144-0.011,4.011,5.613,2.833,7.574l-2.437-0.577c0.395-0.656,0.708-1.75,0.712-2.533c0.005-1.267-0.764-1.456-1.268-1.135
		c-0.823,0.524-1.213,4.04-3.986,4.023C16.778,34.636,16.042,30.372,17.315,27.741z M18.706,40.304l-0.217-3.035
		c-1.975-0.302-4.006-0.882-5.917-1.557l0.215,1.913C14.619,38.724,16.622,39.646,18.706,40.304z M19.43,46.779
		c1.216-0.002,4.93,0.107,6.134-0.148c2.295-0.484,2.694-2.377,2.406-4.491c-0.049-0.361-0.107-0.648-0.178-0.863L25.164,41.3
		c0.202,0.72,0.214,1.675-0.622,1.973c-0.672,0.24-4.165,0.142-5.116,0.143l-0.003-2.262l-2.455,0.004l0.003,2.262l-2.938,0.004
		l0.952,3.362l1.991-0.003l0.002,1.334l2.455-0.004L19.43,46.779z M16.979,49.605l0.005,3.402l10.884-0.016l-0.005-3.402
		L16.979,49.605z M14.022,49.57c-2.354,0.025-2.288,3.483,0.005,3.479C16.298,53.046,16.337,49.589,14.022,49.57z"/>
    <path fill="#EB6807" d="M155.629,76.769h-3.285l1.102-16.074h4.471l1.289,5.199c0.458,1.913,0.915,3.868,1.227,5.76h0.083
		c0.333-1.851,0.79-3.909,1.268-5.781l1.372-5.178h4.409l0.915,16.074h-3.452l-0.229-5.739c-0.083-1.705-0.167-3.847-0.146-5.968
		h-0.062c-0.416,1.934-0.977,4.117-1.414,5.656l-1.58,5.76h-2.766l-1.435-5.719c-0.395-1.539-0.852-3.722-1.185-5.698h-0.062
		c-0.062,1.996-0.167,4.263-0.25,5.989L155.629,76.769z M175.634,76.998c-3.244,0-5.469-2.246-5.469-6.01
		c0-3.93,2.371-6.155,5.594-6.155c3.348,0,5.365,2.495,5.365,6.01C181.124,75.396,178.192,76.998,175.634,76.998z M175.676,74.336
		c1.185,0,1.747-1.56,1.747-3.431c0-1.726-0.499-3.41-1.747-3.41c-1.373,0-1.809,1.788-1.809,3.41
		C173.866,72.859,174.428,74.336,175.676,74.336z M186.842,76.998c1.705,0,2.766-0.936,3.265-1.684h0.062l0.167,1.456h3.161
		c-0.042-1.04-0.104-2.329-0.104-3.764v-7.943h-3.66v7.174c0,1.185-0.728,1.768-1.476,1.768c-1.019,0-1.456-0.915-1.456-2.495
		v-6.446h-3.66v6.966C183.141,75.396,184.472,76.998,186.842,76.998z M202.438,64.833c-1.622,0-2.724,0.915-3.244,1.705h-0.062
		l-0.187-1.476h-3.14c0.042,1.102,0.083,2.35,0.083,3.743v7.964h3.66v-6.862c0-1.497,0.811-2.059,1.581-2.059
		c1.04,0,1.414,0.894,1.414,2.121v6.8h3.66v-7.133C206.202,66.6,204.892,64.833,202.438,64.833z M209.217,72.568
		c0,1.331,0.062,4.408,3.66,4.408c0.977,0,1.788-0.125,2.246-0.27l-0.021-2.828c-0.312,0.083-0.541,0.104-0.957,0.104
		c-0.874,0-1.31-0.499-1.31-1.872v-4.408h2.433v-2.641h-2.433v-3.161l-3.618,1.019v2.142h-1.435v2.641h1.435V72.568z
		 M219.885,76.998c-2.121,0-3.514-1.622-3.514-3.598c0-3.098,2.766-4.429,6.218-4.45c0-0.894-0.395-1.539-1.872-1.539
		c-1.102,0-2.142,0.333-2.89,0.79l-0.665-2.371c0.749-0.416,2.267-0.998,4.284-0.998c3.868,0,4.824,2.454,4.824,5.053v4.117
		c0,1.04,0.042,2.059,0.187,2.766h-3.286l-0.208-1.123H222.9C222.193,76.582,221.091,76.998,219.885,76.998z M222.713,72.755v-1.518
		c-1.518,0-2.807,0.437-2.807,1.789c0,0.957,0.582,1.372,1.227,1.372C221.881,74.398,222.713,73.857,222.713,72.755z
		 M230.594,63.731c1.061,0,1.871-0.749,1.871-1.851c0-1.102-0.769-1.872-1.871-1.872c-1.081,0-1.872,0.769-1.872,1.872
		C228.723,62.94,229.492,63.731,230.594,63.731z M228.764,76.769h3.66V65.061h-3.66V76.769z M234.919,76.769h3.66v-6.862
		c0-1.497,0.811-2.059,1.58-2.059c1.04,0,1.414,0.894,1.414,2.121v6.8h3.66v-7.133c0-3.036-1.31-4.803-3.764-4.803
		c-1.622,0-2.724,0.915-3.244,1.705h-0.062l-0.187-1.476h-3.14c0.042,1.102,0.083,2.35,0.083,3.743V76.769z M132.423,90.577h4.887
		v-2.994h-4.887V84.36h5.157v-3.057h-8.817v16.074h9.129V94.32h-5.469V90.577z M146.542,85.441c-1.622,0-2.724,0.915-3.244,1.705
		h-0.062l-0.187-1.476h-3.14c0.042,1.102,0.083,2.35,0.083,3.743v7.964h3.66v-6.862c0-1.497,0.811-2.059,1.581-2.059
		c1.04,0,1.414,0.894,1.414,2.121v6.8h3.66v-7.133C150.306,87.209,148.996,85.441,146.542,85.441z M156.94,82.509l-3.618,1.019
		v2.142h-1.435v2.641h1.435v4.866c0,1.331,0.062,4.408,3.66,4.408c0.978,0,1.788-0.125,2.246-0.27l-0.021-2.828
		c-0.312,0.083-0.541,0.104-0.957,0.104c-0.874,0-1.31-0.499-1.31-1.872v-4.408h2.433V85.67h-2.433V82.509z M170.83,91.284
		c0,0.561-0.021,1.144-0.104,1.539h-6.613c0.083,1.393,1.331,2.038,2.849,2.038c1.061,0,1.975-0.187,2.807-0.458l0.478,2.537
		c-1.081,0.437-2.475,0.645-3.868,0.645c-3.68,0-5.76-2.204-5.76-5.864c0-3.348,1.955-6.28,5.448-6.28
		C168.855,85.441,170.83,87.313,170.83,91.284z M167.482,90.307c0-1.04-0.333-2.35-1.601-2.35c-1.248,0-1.726,1.372-1.788,2.35
		H167.482z M176.05,87.625h-0.083l-0.146-1.955h-3.14c0.042,1.061,0.083,2.246,0.083,3.784v7.923h3.66v-5.864
		c0-0.416,0.042-0.832,0.146-1.102c0.312-1.04,1.185-1.476,2.121-1.476c0.374,0,0.645,0.021,0.894,0.083v-3.514
		c-0.229-0.042-0.416-0.062-0.77-0.062C177.859,85.441,176.632,86.086,176.05,87.625z M185.303,82.509l-3.618,1.019v2.142h-1.435
		v2.641h1.435v4.866c0,1.331,0.062,4.408,3.66,4.408c0.977,0,1.788-0.125,2.246-0.27l-0.021-2.828
		c-0.312,0.083-0.541,0.104-0.957,0.104c-0.874,0-1.31-0.499-1.31-1.872v-4.408h2.433V85.67h-2.433V82.509z M198.737,94.612
		c0,1.04,0.042,2.059,0.187,2.766h-3.286l-0.208-1.123h-0.062c-0.707,0.936-1.809,1.352-3.015,1.352
		c-2.121,0-3.514-1.622-3.514-3.597c0-3.098,2.766-4.429,6.218-4.45c0-0.894-0.395-1.539-1.872-1.539
		c-1.102,0-2.142,0.333-2.89,0.79l-0.665-2.371c0.749-0.416,2.266-0.998,4.284-0.998c3.868,0,4.824,2.454,4.824,5.053V94.612z
		 M195.181,91.846c-1.518,0-2.807,0.437-2.807,1.789c0,0.957,0.582,1.372,1.227,1.372c0.749,0,1.58-0.541,1.58-1.643V91.846z
		 M201.232,97.377h3.66V85.67h-3.66V97.377z M203.062,80.617c-1.081,0-1.872,0.769-1.872,1.872c0,1.06,0.769,1.851,1.872,1.851
		c1.061,0,1.871-0.749,1.871-1.851C204.933,81.386,204.164,80.617,203.062,80.617z M213.938,85.441
		c-1.622,0-2.724,0.915-3.244,1.705h-0.062l-0.187-1.476h-3.14c0.042,1.102,0.083,2.35,0.083,3.743v7.964h3.66v-6.862
		c0-1.497,0.811-2.059,1.58-2.059c1.04,0,1.414,0.894,1.414,2.121v6.8h3.66v-7.133C217.701,87.209,216.391,85.441,213.938,85.441z
		 M232.965,85.441c-1.809,0-2.87,1.123-3.327,1.788h-0.042c-0.458-1.102-1.497-1.788-2.932-1.788c-1.663,0-2.682,0.957-3.223,1.684
		h-0.062l-0.166-1.456h-3.119c0.042,1.102,0.083,2.35,0.083,3.743v7.964h3.598v-7.028c0-1.497,0.936-1.934,1.476-1.934
		c1.019,0,1.31,0.998,1.31,2.142v6.821h3.597v-7.049c0-1.185,0.603-1.913,1.456-1.913c0.998,0,1.331,0.957,1.331,2.433v6.53h3.597
		v-7.112C236.541,87.146,235.252,85.441,232.965,85.441z M248.686,91.284c0,0.561-0.021,1.144-0.104,1.539h-6.613
		c0.083,1.393,1.331,2.038,2.849,2.038c1.061,0,1.976-0.187,2.807-0.458l0.478,2.537c-1.081,0.437-2.475,0.645-3.868,0.645
		c-3.68,0-5.76-2.204-5.76-5.864c0-3.348,1.955-6.28,5.448-6.28C246.71,85.441,248.686,87.313,248.686,91.284z M245.338,90.307
		c0-1.04-0.333-2.35-1.601-2.35c-1.248,0-1.726,1.372-1.789,2.35H245.338z M257.17,85.441c-1.622,0-2.724,0.915-3.244,1.705h-0.062
		l-0.187-1.476h-3.14c0.042,1.102,0.083,2.35,0.083,3.743v7.964h3.66v-6.862c0-1.497,0.811-2.059,1.581-2.059
		c1.04,0,1.414,0.894,1.414,2.121v6.8h3.66v-7.133C260.934,87.209,259.623,85.441,257.17,85.441z M270,88.311V85.67h-2.433v-3.161
		l-3.618,1.019v2.142h-1.435v2.641h1.435v4.866c0,1.331,0.062,4.408,3.66,4.408c0.978,0,1.788-0.125,2.246-0.27l-0.021-2.828
		c-0.312,0.083-0.541,0.104-0.957,0.104c-0.874,0-1.31-0.499-1.31-1.872v-4.408H270z"/>
    <path fill="#464646" d="M151.203,45.055h4.942v1.593h-6.846V34.072h6.567v1.592h-4.663v3.645h4.4v1.576h-4.4V45.055z
		 M161.776,42.428c-0.23,0.788-0.443,1.527-0.607,2.282h-0.049c-0.164-0.755-0.361-1.51-0.607-2.298l-1.478-4.81h-2.052l3.169,9.046
		h1.823l3.251-9.046h-1.987L161.776,42.428z M173.712,41.755c0,0.312-0.016,0.575-0.049,0.804h-5.746
		c0.049,2.036,1.314,2.807,2.742,2.807c1.001,0,1.691-0.18,2.282-0.427l0.312,1.346c-0.64,0.296-1.642,0.542-2.873,0.542
		c-2.725,0-4.302-1.822-4.302-4.581c0-2.693,1.51-4.843,4.072-4.843C172.694,37.404,173.712,39.522,173.712,41.755z M171.906,41.197
		c0.016-1.084-0.427-2.43-1.888-2.43c-1.396,0-1.987,1.379-2.085,2.43H171.906z M180.033,37.404c-1.363,0-2.315,0.772-2.742,1.543
		h-0.049l-0.098-1.346h-1.658c0.033,0.772,0.065,1.543,0.065,2.545v6.502h1.905v-5.451c0-1.445,1.001-2.216,1.937-2.216
		c1.297,0,1.724,1.084,1.724,2.364v5.303h1.904v-5.533C183.021,38.324,181.445,37.404,180.033,37.404z M187.684,35.369l-1.888,0.591
		v1.642h-1.281v1.428h1.281v4.679c0,1.182,0.213,1.937,0.673,2.43c0.394,0.443,1.034,0.69,1.79,0.69c0.64,0,1.149-0.082,1.478-0.213
		l-0.066-1.461c-0.23,0.066-0.46,0.115-0.837,0.115c-0.804,0-1.149-0.542-1.149-1.658V39.03h2.151v-1.428h-2.151V35.369z
		 M197.814,44.497c0,0.772,0.016,1.56,0.132,2.151h-1.724l-0.131-1.051h-0.049c-0.509,0.706-1.395,1.231-2.528,1.231
		c-1.691,0-2.66-1.248-2.66-2.643c0-2.249,1.954-3.366,5.057-3.366c0-0.673,0-2.019-1.822-2.019c-0.804,0-1.625,0.246-2.2,0.624
		l-0.394-1.264c0.64-0.411,1.707-0.755,2.922-0.755c2.66,0,3.398,1.757,3.398,3.678V44.497z M195.959,42.1
		c-1.494,0-3.218,0.279-3.218,1.888c0,1.002,0.624,1.445,1.33,1.445c1.034,0,1.888-0.788,1.888-1.839V42.1z M206.072,37.602h1.691
		c-0.049,0.64-0.082,1.396-0.082,2.61v5.155c0,1.806-0.148,5.139-4.433,5.139c-1.051,0-2.151-0.23-2.856-0.657l0.427-1.478
		c0.558,0.328,1.428,0.64,2.446,0.64c1.478,0,2.528-0.821,2.528-2.873v-0.87h-0.033c-0.459,0.772-1.346,1.33-2.512,1.33
		c-2.134,0-3.595-1.888-3.595-4.416c0-3.07,1.855-4.778,3.825-4.778c1.346,0,2.102,0.69,2.479,1.412h0.033L206.072,37.602z
		 M205.777,41.099c0-1.199-0.788-2.184-1.954-2.184c-1.313,0-2.233,1.248-2.233,3.185c0,1.773,0.805,3.037,2.217,3.037
		c0.985,0,1.97-0.755,1.97-2.266V41.099z M217.188,41.755c0,0.312-0.016,0.575-0.049,0.804h-5.746
		c0.049,2.036,1.313,2.807,2.742,2.807c1.002,0,1.691-0.18,2.282-0.427l0.312,1.346c-0.64,0.296-1.642,0.542-2.873,0.542
		c-2.725,0-4.302-1.822-4.302-4.581c0-2.693,1.51-4.843,4.072-4.843C216.17,37.404,217.188,39.522,217.188,41.755z M215.382,41.197
		c0.016-1.084-0.427-2.43-1.888-2.43c-1.396,0-1.987,1.379-2.085,2.43H215.382z M223.509,37.404c-1.363,0-2.315,0.772-2.742,1.543
		h-0.049l-0.099-1.346h-1.658c0.033,0.772,0.066,1.543,0.066,2.545v6.502h1.905v-5.451c0-1.445,1.001-2.216,1.937-2.216
		c1.297,0,1.724,1.084,1.724,2.364v5.303h1.905v-5.533C226.497,38.324,224.92,37.404,223.509,37.404z M231.159,35.369l-1.888,0.591
		v1.642h-1.281v1.428h1.281v4.679c0,1.182,0.213,1.937,0.673,2.43c0.394,0.443,1.034,0.69,1.79,0.69c0.64,0,1.149-0.082,1.477-0.213
		l-0.065-1.461c-0.23,0.066-0.46,0.115-0.837,0.115c-0.804,0-1.149-0.542-1.149-1.658V39.03h2.151v-1.428h-2.151V35.369z
		 M242.307,37.602h-1.905V43.2c0,1.363-1.018,2.052-1.888,2.052c-1.248,0-1.691-1.034-1.691-2.594v-5.057h-1.904v5.374
		c0,2.884,1.363,3.853,2.922,3.853c1.461,0,2.348-0.87,2.725-1.494h0.049l0.098,1.313h1.675c-0.033-0.722-0.082-1.573-0.082-2.589
		V37.602z M248.825,37.404c-0.985,0-1.937,0.706-2.348,1.855h-0.066l-0.066-1.658h-1.658c0.049,0.837,0.066,1.707,0.066,2.758v6.288
		h1.905v-4.794c0-1.576,0.804-2.627,2.085-2.627c0.214,0,0.394,0.016,0.558,0.049v-1.822
		C249.137,37.421,249.006,37.404,248.825,37.404z"/>
</g>
</svg>
